<svg width="385" height="371" version="1.1" xmlns="http://www.w3.org/2000/svg" desc="Created with imagetracer.js version 1.2.6" ><path fill="rgb(0,0,0)" stroke="rgb(0,0,0)" stroke-width="1" opacity="0" d="M 0 0 L 385 0 L 385 371 L 379.5 371 L 379 370.5 L 379 12.5 Q 378 10 373.5 11 L 372 12.5 L 372 371 L 341.5 371 L 341 370.5 L 341 246.5 Q 340.88 245.37 335.5 246 L 334 247.5 L 334 371 L 305.5 371 L 305 370.5 L 305 246.5 L 304.5 246 L 298 246 L 298 370.5 L 297.5 371 L 268 371 L 268 246.5 Q 267.88 245.37 262.5 246 L 261 247.5 L 261 371 L 232.5 371 L 232 370.5 L 232 247.5 L 230.5 246 L 225 246 L 225 370.5 L 224.5 371 L 193 371 L 193 100.5 L 191.5 100 L 188 102.5 L 188 370.5 L 187.5 371 L 158 371 L 158 246.5 L 157.5 246 L 152 246 L 152 370.5 L 151.5 371 L 122 371 L 122 246.5 L 121.5 246 L 116 246 L 116 370.5 L 115.5 371 L 86 371 L 86 246.5 L 85.5 246 L 79 246 L 79 370.5 L 78.5 371 L 49 371 L 49 246.5 L 48.5 246 L 43 246 L 43 370.5 L 42.5 371 L 14 371 L 14 11.5 L 13.5 11 L 7.5 11 L 6 12.5 L 6 371 L 0.5 371 L 0 370.5 L 0 0 Z " /><path fill="rgb(0,0,0)" stroke="rgb(0,0,0)" stroke-width="1" opacity="0.35294117647058826" d="M 13.5 12 L 14 370.5 L 13 370.5 L 13.5 12 Z " /><path fill="rgb(0,0,0)" stroke="rgb(0,0,0)" stroke-width="1" opacity="0.35294117647058826" d="M 191.5 102 L 193 103.5 L 193 371 Q 190.04 371.38 190 370.5 L 190 103.5 L 191.5 102 Z " /><path fill="rgb(0,0,0)" stroke="rgb(0,0,0)" stroke-width="1" opacity="0.35294117647058826" d="M 44 246 L 47 246.5 L 45 247 L 44 249.5 L 43.5 371 L 43 248.5 L 44 246 Z " /><path fill="rgb(0,0,0)" stroke="rgb(0,0,0)" stroke-width="1" opacity="0.35294117647058826" d="M 81.5 246 L 84 247.5 L 83.5 371 L 82.5 247 L 81 248.5 L 80.5 371 L 80 247.5 L 81.5 246 Z " /><path fill="rgb(0,0,0)" stroke="rgb(0,0,0)" stroke-width="1" opacity="0.35294117647058826" d="M 117 246 Q 120 245.25 121 247.5 L 120.5 371 L 120 248.5 L 118.5 247 L 118 371 L 116 370.5 L 116 248.5 L 117 246 Z " /><path fill="rgb(0,0,0)" stroke="rgb(0,0,0)" stroke-width="1" opacity="0.35294117647058826" d="M 154.5 246 Q 157.25 245.75 157 246.5 L 157 370.5 L 156 370.5 L 155.5 247 L 154 248.5 L 153.5 371 L 153 247.5 L 154.5 246 Z " /><path fill="rgb(0,0,0)" stroke="rgb(0,0,0)" stroke-width="1" opacity="0.35294117647058826" d="M 227.5 246 Q 230.25 245.75 230 246.5 L 230 370.5 L 229 370.5 L 229 247.5 L 227 247 L 226.5 371 L 226 247.5 L 227.5 246 Z " /><path fill="rgb(0,0,0)" stroke="rgb(0,0,0)" stroke-width="1" opacity="0.35294117647058826" d="M 263 246 Q 266 245.25 267 247.5 L 266.5 371 L 266 247 L 264 247.5 L 264 370.5 L 262 371 L 262 249.5 Q 263.75 248.58 263 246 Z " /><path fill="rgb(0,0,0)" stroke="rgb(0,0,0)" stroke-width="1" opacity="0.35294117647058826" d="M 300.5 246 Q 303.25 245.75 303 246.5 L 303 370.5 L 302 370.5 L 302 247.5 L 300 247 L 299.5 371 L 299 247.5 L 300.5 246 Z " /><path fill="rgb(0,0,0)" stroke="rgb(0,0,0)" stroke-width="1" opacity="0.35294117647058826" d="M 336 246 Q 339 245.25 340 247.5 L 339.5 371 L 339 249.5 L 337.5 247 L 336.5 371 L 336 246 Z " /><path fill="rgb(0,0,0)" stroke="rgb(0,0,0)" stroke-width="1" opacity="0.12156862745098039" d="M 8.5 11 L 12 11.5 L 8.5 12 L 8.5 11 Z " /><path fill="rgb(0,0,0)" stroke="rgb(0,0,0)" stroke-width="1" opacity="0.12156862745098039" d="M 374.5 11 L 377 11.5 L 374.5 12 L 374.5 11 Z " /><path fill="rgb(0,0,0)" stroke="rgb(0,0,0)" stroke-width="1" opacity="0.12156862745098039" d="M 6.5 12 L 7 370.5 L 6 370.5 L 6.5 12 Z " /><path fill="rgb(0,0,0)" stroke="rgb(0,0,0)" stroke-width="1" opacity="0.12156862745098039" d="M 372.5 12 L 373 370.5 L 372 370.5 L 372.5 12 Z " /><path fill="rgb(0,0,0)" stroke="rgb(0,0,0)" stroke-width="1" opacity="0.12156862745098039" d="M 378.5 12 L 379 370.5 L 378 370.5 L 378.5 12 Z " /><path fill="rgb(0,0,0)" stroke="rgb(0,0,0)" stroke-width="1" opacity="0.12156862745098039" d="M 189 102 L 191 102.5 L 190 103.5 L 189.5 371 L 189 102 Z " /><path fill="rgb(0,0,0)" stroke="rgb(0,0,0)" stroke-width="1" opacity="0.12156862745098039" d="M 192.5 102 L 192.5 103 L 192.5 102 Z " /><path fill="rgb(0,0,0)" stroke="rgb(0,0,0)" stroke-width="1" opacity="0.12156862745098039" d="M 43.5 246 L 44 247.5 L 43 247.5 L 43.5 246 Z " /><path fill="rgb(0,0,0)" stroke="rgb(0,0,0)" stroke-width="1" opacity="0.12156862745098039" d="M 47.5 246 L 49 249.5 L 49 371 L 47 370.5 L 47.5 246 Z " /><path fill="rgb(0,0,0)" stroke="rgb(0,0,0)" stroke-width="1" opacity="0.12156862745098039" d="M 80.5 246 L 80 247.5 L 79.5 371 L 79 247.5 L 80.5 246 Z " /><path fill="rgb(0,0,0)" stroke="rgb(0,0,0)" stroke-width="1" opacity="0.12156862745098039" d="M 83.5 246 L 85 246.5 L 85 370.5 L 84 370.5 L 84 247.5 L 83.5 246 Z " /><path fill="rgb(0,0,0)" stroke="rgb(0,0,0)" stroke-width="1" opacity="0.12156862745098039" d="M 116.5 246 L 117 247.5 L 116 247.5 L 116.5 246 Z " /><path fill="rgb(0,0,0)" stroke="rgb(0,0,0)" stroke-width="1" opacity="0.12156862745098039" d="M 120.5 246 L 122 247.5 L 122 370.5 L 121 370.5 L 121 247.5 L 120.5 246 Z " /><path fill="rgb(0,0,0)" stroke="rgb(0,0,0)" stroke-width="1" opacity="0.12156862745098039" d="M 153.5 246 L 153 247.5 L 152.5 371 L 152 247.5 L 153.5 246 Z " /><path fill="rgb(0,0,0)" stroke="rgb(0,0,0)" stroke-width="1" opacity="0.12156862745098039" d="M 157.5 246 L 158 370.5 L 157 370.5 L 157.5 246 Z " /><path fill="rgb(0,0,0)" stroke="rgb(0,0,0)" stroke-width="1" opacity="0.12156862745098039" d="M 226.5 246 L 226.5 247 L 226.5 246 Z " /><path fill="rgb(0,0,0)" stroke="rgb(0,0,0)" stroke-width="1" opacity="0.12156862745098039" d="M 230.5 246 L 231 370.5 L 230 370.5 L 230.5 246 Z " /><path fill="rgb(0,0,0)" stroke="rgb(0,0,0)" stroke-width="1" opacity="0.12156862745098039" d="M 262.5 246 L 263 248.5 L 262 248.5 L 262.5 246 Z " /><path fill="rgb(0,0,0)" stroke="rgb(0,0,0)" stroke-width="1" opacity="0.12156862745098039" d="M 266.5 246 L 266.5 247 L 266.5 246 Z " /><path fill="rgb(0,0,0)" stroke="rgb(0,0,0)" stroke-width="1" opacity="0.12156862745098039" d="M 299.5 246 L 299 247.5 L 298.5 371 L 298 247.5 L 299.5 246 Z " /><path fill="rgb(0,0,0)" stroke="rgb(0,0,0)" stroke-width="1" opacity="0.12156862745098039" d="M 303.5 246 L 304 370.5 L 303 370.5 L 303.5 246 Z " /><path fill="rgb(0,0,0)" stroke="rgb(0,0,0)" stroke-width="1" opacity="0.12156862745098039" d="M 335.5 246 L 336 370.5 L 335 370.5 L 335.5 246 Z " /><path fill="rgb(0,0,0)" stroke="rgb(0,0,0)" stroke-width="1" opacity="0.12156862745098039" d="M 339.5 246 L 341 247.5 L 341 370.5 L 340 370.5 L 340 247.5 L 339.5 246 Z " /><path fill="rgb(0,0,0)" stroke="rgb(0,0,0)" stroke-width="1" opacity="0.12156862745098039" d="M 225.5 248 L 226 370.5 L 225 370.5 L 225.5 248 Z " /><path fill="rgb(0,0,0)" stroke="rgb(0,0,0)" stroke-width="1" opacity="0.8392156862745098" d="M 7 12 L 12.5 12 L 13 12.5 L 13 371 L 7.5 371 L 7 370.5 L 7 12 Z " /><path fill="rgb(0,0,0)" stroke="rgb(0,0,0)" stroke-width="1" opacity="0.8392156862745098" d="M 373 12 L 377.5 12 L 378 12.5 L 378 371 L 373.5 371 L 373 370.5 L 373 12 Z " /><path fill="rgb(0,0,0)" stroke="rgb(0,0,0)" stroke-width="1" opacity="0.8392156862745098" d="M 45 247 L 47 247.5 L 47 371 Q 44.04 371.38 44 370.5 L 44 249.5 L 45 247 Z " /><path fill="rgb(0,0,0)" stroke="rgb(0,0,0)" stroke-width="1" opacity="0.8392156862745098" d="M 82.5 247 L 83 371 L 81 370.5 L 81 248.5 L 82.5 247 Z " /><path fill="rgb(0,0,0)" stroke="rgb(0,0,0)" stroke-width="1" opacity="0.8392156862745098" d="M 118.5 247 L 120 248.5 L 120 371 L 118 370.5 L 118.5 247 Z " /><path fill="rgb(0,0,0)" stroke="rgb(0,0,0)" stroke-width="1" opacity="0.8392156862745098" d="M 155.5 247 L 156 371 L 154 370.5 L 154 248.5 L 155.5 247 Z " /><path fill="rgb(0,0,0)" stroke="rgb(0,0,0)" stroke-width="1" opacity="0.8392156862745098" d="M 227 247 L 229 247.5 L 229 371 L 227 370.5 L 227 247 Z " /><path fill="rgb(0,0,0)" stroke="rgb(0,0,0)" stroke-width="1" opacity="0.8392156862745098" d="M 264 247 L 266 247.5 L 266 371 L 264 370.5 L 264 247 Z " /><path fill="rgb(0,0,0)" stroke="rgb(0,0,0)" stroke-width="1" opacity="0.8392156862745098" d="M 300 247 L 302 247.5 L 302 371 L 300 370.5 L 300 247 Z " /><path fill="rgb(0,0,0)" stroke="rgb(0,0,0)" stroke-width="1" opacity="0.8392156862745098" d="M 337.5 247 L 339 249.5 L 339 371 L 337 370.5 L 337.5 247 Z " /><path fill="rgb(0,0,0)" stroke="rgb(0,0,0)" stroke-width="1" opacity="0.023529411764705882" d="M 191.5 100 L 193 100.5 L 191.5 101 L 191.5 100 Z " /><path fill="rgb(0,0,0)" stroke="rgb(0,0,0)" stroke-width="1" opacity="0.023529411764705882" d="M 189.5 101 Q 191 102 188.5 103 Q 187 102 189.5 101 Z " /><path fill="rgb(0,0,0)" stroke="rgb(0,0,0)" stroke-width="1" opacity="0.023529411764705882" d="M 85.5 246 L 86 247.5 L 85 247.5 L 85.5 246 Z " /><path fill="rgb(0,0,0)" stroke="rgb(0,0,0)" stroke-width="1" opacity="0.023529411764705882" d="M 304.5 246 L 305 370.5 L 304 370.5 L 304.5 246 Z " /><path fill="rgb(0,0,0)" stroke="rgb(0,0,0)" stroke-width="1" opacity="0.023529411764705882" d="M 231.5 247 L 232 370.5 L 231 370.5 L 231.5 247 Z " /><path fill="rgb(0,0,0)" stroke="rgb(0,0,0)" stroke-width="1" opacity="0.023529411764705882" d="M 261.5 247 L 262 370.5 L 261 370.5 L 261.5 247 Z " /><path fill="rgb(0,0,0)" stroke="rgb(0,0,0)" stroke-width="1" opacity="0.023529411764705882" d="M 334.5 247 L 335 370.5 L 334 370.5 L 334.5 247 Z " /><path fill="rgb(0,0,0)" stroke="rgb(0,0,0)" stroke-width="1" opacity="0.03137254901960784" d="M 7.5 11 L 7.5 12 L 7.5 11 Z " /><path fill="rgb(0,0,0)" stroke="rgb(0,0,0)" stroke-width="1" opacity="0.03137254901960784" d="M 12.5 11 L 14 11.5 L 12.5 12 L 12.5 11 Z " /><path fill="rgb(0,0,0)" stroke="rgb(0,0,0)" stroke-width="1" opacity="0.03137254901960784" d="M 373.5 11 L 373.5 12 L 373.5 11 Z " /><path fill="rgb(0,0,0)" stroke="rgb(0,0,0)" stroke-width="1" opacity="0.03137254901960784" d="M 377.5 11 L 377.5 12 L 377.5 11 Z " /><path fill="rgb(0,0,0)" stroke="rgb(0,0,0)" stroke-width="1" opacity="0.03137254901960784" d="M 190.5 101 L 193 101.5 L 190.5 102 L 190.5 101 Z " /><path fill="rgb(0,0,0)" stroke="rgb(0,0,0)" stroke-width="1" opacity="0.03137254901960784" d="M 188.5 103 L 189 370.5 L 188 370.5 L 188.5 103 Z " /><path fill="rgb(0,0,0)" stroke="rgb(0,0,0)" stroke-width="1" opacity="0.03137254901960784" d="M 48.5 246 L 49 248.5 L 48 248.5 L 48.5 246 Z " /><path fill="rgb(0,0,0)" stroke="rgb(0,0,0)" stroke-width="1" opacity="0.03137254901960784" d="M 79.5 246 L 79.5 247 L 79.5 246 Z " /><path fill="rgb(0,0,0)" stroke="rgb(0,0,0)" stroke-width="1" opacity="0.03137254901960784" d="M 121.5 246 L 121.5 247 L 121.5 246 Z " /><path fill="rgb(0,0,0)" stroke="rgb(0,0,0)" stroke-width="1" opacity="0.03137254901960784" d="M 152.5 246 L 152.5 247 L 152.5 246 Z " /><path fill="rgb(0,0,0)" stroke="rgb(0,0,0)" stroke-width="1" opacity="0.03137254901960784" d="M 225.5 246 L 226 247.5 L 225 247.5 L 225.5 246 Z " /><path fill="rgb(0,0,0)" stroke="rgb(0,0,0)" stroke-width="1" opacity="0.03137254901960784" d="M 267.5 246 L 268 370.5 L 267 370.5 L 267.5 246 Z " /><path fill="rgb(0,0,0)" stroke="rgb(0,0,0)" stroke-width="1" opacity="0.03137254901960784" d="M 298.5 246 L 298.5 247 L 298.5 246 Z " /><path fill="rgb(0,0,0)" stroke="rgb(0,0,0)" stroke-width="1" opacity="0.03137254901960784" d="M 340.5 246 L 340.5 247 L 340.5 246 Z " /><path fill="rgb(0,0,0)" stroke="rgb(0,0,0)" stroke-width="1" opacity="0.03137254901960784" d="M 85.5 248 L 86 370.5 L 85 370.5 L 85.5 248 Z " /></svg>